# Blender 3.4.0
# www.blender.org
mtllib untitled1.mtl
o Cylinder.001
v 0.000000 0.810000 -0.100000
v 0.158023 0.794436 -0.100000
v 0.309974 0.748342 -0.100000
v 0.450012 0.673490 -0.100000
v 0.572756 0.572756 -0.100000
v 0.673490 0.450012 -0.100000
v 0.748342 0.309974 -0.100000
v 0.794436 0.158023 -0.100000
v 0.810000 0.000000 -0.100000
v 0.794436 -0.158023 -0.100000
v 0.748342 -0.309974 -0.100000
v 0.673490 -0.450012 -0.100000
v 0.572756 -0.572756 -0.100000
v 0.450012 -0.673490 -0.100000
v 0.309974 -0.748342 -0.100000
v 0.158023 -0.794436 -0.100000
v 0.000000 -0.810000 -0.100000
v -0.158023 -0.794436 -0.100000
v -0.309974 -0.748342 -0.100000
v -0.450012 -0.673490 -0.100000
v -0.572756 -0.572756 -0.100000
v -0.673490 -0.450012 -0.100000
v -0.748342 -0.309974 -0.100000
v -0.794436 -0.158023 -0.100000
v -0.810000 0.000000 -0.100000
v -0.794436 0.158023 -0.100000
v -0.748342 0.309974 -0.100000
v -0.673490 0.450012 -0.100000
v -0.572756 0.572756 -0.100000
v -0.450012 0.673490 -0.100000
v -0.309974 0.748342 -0.100000
v -0.158023 0.794436 -0.100000
v 0.039506 0.806109 -0.100000
v 0.079012 0.802218 -0.100000
v 0.118517 0.798327 -0.100000
v 0.196011 0.782913 -0.100000
v 0.233998 0.771389 -0.100000
v 0.271986 0.759866 -0.100000
v 0.344983 0.729630 -0.100000
v 0.379993 0.710916 -0.100000
v 0.415002 0.692203 -0.100000
v 0.480698 0.648307 -0.100000
v 0.511384 0.623123 -0.100000
v 0.542070 0.597940 -0.100000
v 0.597940 0.542070 -0.100000
v 0.623123 0.511384 -0.100000
v 0.648307 0.480698 -0.100000
v 0.692203 0.415002 -0.100000
v 0.710916 0.379993 -0.100000
v 0.729629 0.344983 -0.100000
v 0.759866 0.271986 -0.100000
v 0.771389 0.233998 -0.100000
v 0.782913 0.196011 -0.100000
v 0.798327 0.118517 -0.100000
v 0.802218 0.079012 -0.100000
v 0.806109 0.039506 -0.100000
v 0.806109 -0.039506 -0.100000
v 0.802218 -0.079012 -0.100000
v 0.798327 -0.118517 -0.100000
v 0.782913 -0.196011 -0.100000
v 0.771389 -0.233998 -0.100000
v 0.759866 -0.271986 -0.100000
v 0.729629 -0.344983 -0.100000
v 0.710916 -0.379993 -0.100000
v 0.692203 -0.415002 -0.100000
v 0.648307 -0.480698 -0.100000
v 0.623123 -0.511384 -0.100000
v 0.597940 -0.542070 -0.100000
v 0.542070 -0.597940 -0.100000
v 0.511384 -0.623123 -0.100000
v 0.480698 -0.648307 -0.100000
v 0.415002 -0.692203 -0.100000
v 0.379993 -0.710916 -0.100000
v 0.344983 -0.729629 -0.100000
v 0.271986 -0.759866 -0.100000
v 0.233998 -0.771389 -0.100000
v 0.196011 -0.782913 -0.100000
v 0.118517 -0.798327 -0.100000
v 0.079012 -0.802218 -0.100000
v 0.039506 -0.806109 -0.100000
v -0.039506 -0.806109 -0.100000
v -0.079012 -0.802218 -0.100000
v -0.118517 -0.798327 -0.100000
v -0.196011 -0.782913 -0.100000
v -0.233998 -0.771389 -0.100000
v -0.271986 -0.759866 -0.100000
v -0.344983 -0.729629 -0.100000
v -0.379993 -0.710916 -0.100000
v -0.415002 -0.692203 -0.100000
v -0.480698 -0.648307 -0.100000
v -0.511384 -0.623123 -0.100000
v -0.542070 -0.597940 -0.100000
v -0.597940 -0.542070 -0.100000
v -0.623123 -0.511384 -0.100000
v -0.648307 -0.480698 -0.100000
v -0.692203 -0.415002 -0.100000
v -0.710916 -0.379993 -0.100000
v -0.729629 -0.344983 -0.100000
v -0.759866 -0.271986 -0.100000
v -0.771389 -0.233998 -0.100000
v -0.782913 -0.196011 -0.100000
v -0.798327 -0.118517 -0.100000
v -0.802218 -0.079012 -0.100000
v -0.806109 -0.039506 -0.100000
v -0.806109 0.039506 -0.100000
v -0.802218 0.079012 -0.100000
v -0.798327 0.118517 -0.100000
v -0.782913 0.196011 -0.100000
v -0.771389 0.233998 -0.100000
v -0.759866 0.271986 -0.100000
v -0.729629 0.344983 -0.100000
v -0.710916 0.379993 -0.100000
v -0.692203 0.415002 -0.100000
v -0.648307 0.480698 -0.100000
v -0.623123 0.511384 -0.100000
v -0.597940 0.542070 -0.100000
v -0.542070 0.597940 -0.100000
v -0.511384 0.623123 -0.100000
v -0.480698 0.648307 -0.100000
v -0.415002 0.692203 -0.100000
v -0.379993 0.710916 -0.100000
v -0.344983 0.729630 -0.100000
v -0.271986 0.759866 -0.100000
v -0.233998 0.771389 -0.100000
v -0.196011 0.782913 -0.100000
v -0.118517 0.798327 -0.100000
v -0.079012 0.802218 -0.100000
v -0.039506 0.806109 -0.100000
v -0.000000 0.000000 -0.251921
v -0.000000 0.610062 -0.100000
v 0.035907 0.364566 -0.206386
v 0.119017 0.598340 -0.100000
v 0.106340 0.350556 -0.206386
v 0.233461 0.563624 -0.100000
v 0.172687 0.323074 -0.206386
v 0.338932 0.507248 -0.100000
v 0.232397 0.283177 -0.206386
v 0.431379 0.431379 -0.100000
v 0.283177 0.232397 -0.206386
v 0.507248 0.338932 -0.100000
v 0.323074 0.172687 -0.206386
v 0.563624 0.233461 -0.100000
v 0.350556 0.106340 -0.206386
v 0.598340 0.119017 -0.100000
v 0.364566 0.035907 -0.206386
v 0.610062 0.000000 -0.100000
v 0.364566 -0.035907 -0.206386
v 0.598340 -0.119017 -0.100000
v 0.350556 -0.106340 -0.206386
v 0.563624 -0.233461 -0.100000
v 0.323074 -0.172687 -0.206386
v 0.507248 -0.338932 -0.100000
v 0.283177 -0.232397 -0.206386
v 0.431379 -0.431379 -0.100000
v 0.232397 -0.283177 -0.206386
v 0.338932 -0.507248 -0.100000
v 0.172687 -0.323074 -0.206386
v 0.233461 -0.563624 -0.100000
v 0.106340 -0.350556 -0.206386
v 0.119017 -0.598340 -0.100000
v 0.035907 -0.364566 -0.206386
v 0.000000 -0.610062 -0.100000
v -0.035907 -0.364566 -0.206386
v -0.119017 -0.598340 -0.100000
v -0.106340 -0.350556 -0.206386
v -0.233461 -0.563624 -0.100000
v -0.172687 -0.323074 -0.206386
v -0.338932 -0.507248 -0.100000
v -0.232397 -0.283177 -0.206386
v -0.431379 -0.431379 -0.100000
v -0.283177 -0.232397 -0.206386
v -0.507248 -0.338932 -0.100000
v -0.323074 -0.172687 -0.206386
v -0.563624 -0.233461 -0.100000
v -0.350556 -0.106340 -0.206386
v -0.598340 -0.119017 -0.100000
v -0.364566 -0.035907 -0.206386
v -0.610062 0.000000 -0.100000
v -0.364566 0.035907 -0.206386
v -0.598340 0.119017 -0.100000
v -0.350556 0.106340 -0.206386
v -0.563624 0.233461 -0.100000
v -0.323074 0.172687 -0.206386
v -0.507248 0.338932 -0.100000
v -0.283177 0.232397 -0.206386
v -0.431379 0.431379 -0.100000
v -0.232397 0.283177 -0.206386
v -0.338932 0.507248 -0.100000
v -0.172687 0.323074 -0.206386
v -0.233461 0.563624 -0.100000
v -0.106340 0.350556 -0.206386
v -0.119017 0.598340 -0.100000
v -0.035907 0.364566 -0.206386
vn 0.0254 0.2575 -0.9660
vn -0.0254 0.2575 -0.9660
vn -0.0000 0.2640 -0.9645
vn 0.0751 0.2476 -0.9660
vn 0.0515 0.2590 -0.9645
vn 0.1220 0.2282 -0.9660
vn 0.1010 0.2439 -0.9645
vn 0.1641 0.2000 -0.9660
vn 0.1467 0.2195 -0.9645
vn 0.2000 0.1641 -0.9660
vn 0.1867 0.1867 -0.9645
vn 0.2282 0.1220 -0.9660
vn 0.2195 0.1467 -0.9645
vn 0.2476 0.0751 -0.9660
vn 0.2439 0.1010 -0.9645
vn 0.2575 0.0254 -0.9660
vn 0.2590 0.0515 -0.9645
vn 0.2575 -0.0254 -0.9660
vn 0.2640 -0.0000 -0.9645
vn 0.2476 -0.0751 -0.9660
vn 0.2590 -0.0515 -0.9645
vn 0.2282 -0.1220 -0.9660
vn 0.2439 -0.1010 -0.9645
vn 0.2000 -0.1641 -0.9660
vn 0.2195 -0.1467 -0.9645
vn 0.1641 -0.2000 -0.9660
vn 0.1867 -0.1867 -0.9645
vn 0.1220 -0.2282 -0.9660
vn 0.1467 -0.2195 -0.9645
vn 0.0751 -0.2476 -0.9660
vn 0.1010 -0.2439 -0.9645
vn 0.0254 -0.2575 -0.9660
vn 0.0515 -0.2590 -0.9645
vn -0.0254 -0.2575 -0.9660
vn -0.0000 -0.2640 -0.9645
vn -0.0751 -0.2476 -0.9660
vn -0.0515 -0.2590 -0.9645
vn -0.1220 -0.2282 -0.9660
vn -0.1010 -0.2439 -0.9645
vn -0.1641 -0.2000 -0.9660
vn -0.1467 -0.2195 -0.9645
vn -0.2000 -0.1641 -0.9660
vn -0.1867 -0.1867 -0.9645
vn -0.2282 -0.1220 -0.9660
vn -0.2195 -0.1467 -0.9645
vn -0.2476 -0.0751 -0.9660
vn -0.2439 -0.1010 -0.9645
vn -0.2575 -0.0254 -0.9660
vn -0.2590 -0.0515 -0.9645
vn -0.2575 0.0254 -0.9660
vn -0.2640 -0.0000 -0.9645
vn -0.2476 0.0751 -0.9660
vn -0.2590 0.0515 -0.9645
vn -0.2282 0.1220 -0.9660
vn -0.2439 0.1010 -0.9645
vn -0.2000 0.1641 -0.9660
vn -0.2195 0.1467 -0.9645
vn -0.1641 0.2000 -0.9660
vn -0.1867 0.1867 -0.9645
vn -0.1220 0.2282 -0.9660
vn -0.1467 0.2195 -0.9645
vn -0.0751 0.2476 -0.9660
vn -0.1010 0.2439 -0.9645
vn -0.0515 0.2590 -0.9645
vn -0.0000 -0.0000 -1.0000
vn 0.0043 0.0440 -0.9990
vn -0.0043 0.0440 -0.9990
vn 0.0128 0.0423 -0.9990
vn 0.0208 0.0390 -0.9990
vn 0.0281 0.0342 -0.9990
vn 0.0342 0.0281 -0.9990
vn 0.0390 0.0208 -0.9990
vn 0.0423 0.0128 -0.9990
vn 0.0440 0.0043 -0.9990
vn 0.0440 -0.0043 -0.9990
vn 0.0423 -0.0128 -0.9990
vn 0.0390 -0.0208 -0.9990
vn 0.0342 -0.0281 -0.9990
vn 0.0281 -0.0342 -0.9990
vn 0.0208 -0.0390 -0.9990
vn 0.0128 -0.0423 -0.9990
vn 0.0043 -0.0440 -0.9990
vn -0.0043 -0.0440 -0.9990
vn -0.0128 -0.0423 -0.9990
vn -0.0208 -0.0390 -0.9990
vn -0.0281 -0.0342 -0.9990
vn -0.0342 -0.0281 -0.9990
vn -0.0390 -0.0208 -0.9990
vn -0.0423 -0.0128 -0.9990
vn -0.0440 -0.0043 -0.9990
vn -0.0440 0.0043 -0.9990
vn -0.0423 0.0128 -0.9990
vn -0.0390 0.0208 -0.9990
vn -0.0342 0.0281 -0.9990
vn -0.0281 0.0342 -0.9990
vn -0.0208 0.0390 -0.9990
vn -0.0128 0.0423 -0.9990
vt 0.750000 0.490000
vt 0.796822 0.485388
vt 0.841844 0.471731
vt 0.883337 0.449553
vt 0.919706 0.419706
vt 0.949553 0.383337
vt 0.971731 0.341844
vt 0.985388 0.296822
vt 0.990000 0.250000
vt 0.985388 0.203178
vt 0.971731 0.158156
vt 0.949553 0.116663
vt 0.919706 0.080294
vt 0.883337 0.050447
vt 0.841844 0.028269
vt 0.796822 0.014612
vt 0.750000 0.010000
vt 0.703178 0.014612
vt 0.658156 0.028269
vt 0.616663 0.050447
vt 0.580294 0.080294
vt 0.550447 0.116663
vt 0.528269 0.158156
vt 0.514612 0.203178
vt 0.510000 0.250000
vt 0.514612 0.296822
vt 0.528269 0.341844
vt 0.550447 0.383337
vt 0.580294 0.419706
vt 0.616663 0.449553
vt 0.658156 0.471731
vt 0.703178 0.485388
vt 0.761705 0.488847
vt 0.773411 0.487694
vt 0.785116 0.486541
vt 0.808077 0.481974
vt 0.819333 0.478560
vt 0.830588 0.475145
vt 0.852217 0.466186
vt 0.862590 0.460642
vt 0.872964 0.455097
vt 0.892429 0.442091
vt 0.901521 0.434629
vt 0.910613 0.427167
vt 0.927167 0.410613
vt 0.934629 0.401521
vt 0.942091 0.392429
vt 0.955097 0.372964
vt 0.960642 0.362590
vt 0.966187 0.352217
vt 0.975145 0.330588
vt 0.978560 0.319333
vt 0.981974 0.308077
vt 0.986541 0.285116
vt 0.987694 0.273411
vt 0.988847 0.261705
vt 0.988847 0.238295
vt 0.987694 0.226589
vt 0.986541 0.214884
vt 0.981974 0.191923
vt 0.978560 0.180667
vt 0.975145 0.169412
vt 0.966187 0.147783
vt 0.960642 0.137410
vt 0.955097 0.127036
vt 0.942091 0.107571
vt 0.934629 0.098479
vt 0.927167 0.089387
vt 0.910613 0.072833
vt 0.901521 0.065371
vt 0.892429 0.057909
vt 0.872964 0.044903
vt 0.862590 0.039358
vt 0.852217 0.033814
vt 0.830588 0.024855
vt 0.819333 0.021440
vt 0.808077 0.018026
vt 0.785116 0.013459
vt 0.773411 0.012306
vt 0.761705 0.011153
vt 0.738295 0.011153
vt 0.726589 0.012306
vt 0.714884 0.013459
vt 0.691923 0.018026
vt 0.680667 0.021440
vt 0.669412 0.024855
vt 0.647783 0.033814
vt 0.637410 0.039358
vt 0.627036 0.044903
vt 0.607571 0.057909
vt 0.598479 0.065371
vt 0.589387 0.072833
vt 0.572833 0.089387
vt 0.565371 0.098479
vt 0.557909 0.107571
vt 0.544903 0.127036
vt 0.539358 0.137410
vt 0.533814 0.147783
vt 0.524855 0.169412
vt 0.521440 0.180667
vt 0.518026 0.191923
vt 0.513459 0.214884
vt 0.512306 0.226589
vt 0.511153 0.238295
vt 0.511153 0.261705
vt 0.512306 0.273411
vt 0.513459 0.285116
vt 0.518026 0.308077
vt 0.521440 0.319333
vt 0.524855 0.330588
vt 0.533814 0.352217
vt 0.539358 0.362590
vt 0.544903 0.372964
vt 0.557909 0.392429
vt 0.565371 0.401521
vt 0.572833 0.410613
vt 0.589387 0.427167
vt 0.598479 0.434629
vt 0.607571 0.442091
vt 0.627036 0.455097
vt 0.637410 0.460642
vt 0.647783 0.466186
vt 0.669412 0.475145
vt 0.680667 0.478560
vt 0.691923 0.481974
vt 0.714884 0.486541
vt 0.726589 0.487694
vt 0.738295 0.488847
vt 0.750000 0.250000
vt 0.750000 0.430759
vt 0.760639 0.358019
vt 0.785264 0.427286
vt 0.781508 0.353868
vt 0.819173 0.417000
vt 0.801166 0.345726
vt 0.850424 0.400296
vt 0.818858 0.333904
vt 0.877816 0.377816
vt 0.833904 0.318858
vt 0.900296 0.350424
vt 0.845726 0.301166
vt 0.917000 0.319174
vt 0.853868 0.281508
vt 0.927286 0.285264
vt 0.858019 0.260639
vt 0.930759 0.250000
vt 0.858019 0.239361
vt 0.927286 0.214736
vt 0.853868 0.218492
vt 0.917000 0.180826
vt 0.845726 0.198834
vt 0.900296 0.149576
vt 0.833904 0.181142
vt 0.877816 0.122184
vt 0.818858 0.166096
vt 0.850424 0.099704
vt 0.801166 0.154274
vt 0.819174 0.083000
vt 0.781508 0.146132
vt 0.785264 0.072714
vt 0.760639 0.141981
vt 0.750000 0.069241
vt 0.739361 0.141981
vt 0.714736 0.072714
vt 0.718492 0.146132
vt 0.680827 0.083000
vt 0.698834 0.154274
vt 0.649576 0.099704
vt 0.681142 0.166096
vt 0.622184 0.122184
vt 0.666096 0.181142
vt 0.599704 0.149576
vt 0.654274 0.198834
vt 0.583000 0.180826
vt 0.646132 0.218492
vt 0.572714 0.214736
vt 0.641981 0.239361
vt 0.569241 0.250000
vt 0.641981 0.260639
vt 0.572714 0.285264
vt 0.646132 0.281508
vt 0.583000 0.319174
vt 0.654274 0.301166
vt 0.599704 0.350424
vt 0.666096 0.318858
vt 0.622184 0.377816
vt 0.681142 0.333904
vt 0.649576 0.400296
vt 0.698834 0.345726
vt 0.680826 0.417000
vt 0.718492 0.353868
vt 0.714736 0.427286
vt 0.739361 0.358019
s 1
usemtl Material.002
f 131/131/1 193/193/2 130/130/3
f 133/133/4 131/131/1 132/132/5
f 135/135/6 133/133/4 134/134/7
f 137/137/8 135/135/6 136/136/9
f 139/139/10 137/137/8 138/138/11
f 141/141/12 139/139/10 140/140/13
f 143/143/14 141/141/12 142/142/15
f 145/145/16 143/143/14 144/144/17
f 147/147/18 145/145/16 146/146/19
f 149/149/20 147/147/18 148/148/21
f 151/151/22 149/149/20 150/150/23
f 153/153/24 151/151/22 152/152/25
f 155/155/26 153/153/24 154/154/27
f 157/157/28 155/155/26 156/156/29
f 159/159/30 157/157/28 158/158/31
f 161/161/32 159/159/30 160/160/33
f 163/163/34 161/161/32 162/162/35
f 165/165/36 163/163/34 164/164/37
f 167/167/38 165/165/36 166/166/39
f 169/169/40 167/167/38 168/168/41
f 171/171/42 169/169/40 170/170/43
f 173/173/44 171/171/42 172/172/45
f 175/175/46 173/173/44 174/174/47
f 177/177/48 175/175/46 176/176/49
f 179/179/50 177/177/48 178/178/51
f 181/181/52 179/179/50 180/180/53
f 183/183/54 181/181/52 182/182/55
f 185/185/56 183/183/54 184/184/57
f 187/187/58 185/185/56 186/186/59
f 189/189/60 187/187/58 188/188/61
f 191/191/62 189/189/60 190/190/63
f 193/193/2 191/191/62 192/192/64
f 1/1/65 130/130/3 128/128/65
f 34/34/66 130/130/3 33/33/65
f 130/130/3 127/127/67 128/128/65
f 2/2/65 132/132/5 35/35/65
f 37/37/68 132/132/5 36/36/65
f 132/132/5 34/34/66 35/35/65
f 3/3/65 134/134/7 38/38/65
f 40/40/69 134/134/7 39/39/65
f 134/134/7 37/37/68 38/38/65
f 4/4/65 136/136/9 41/41/65
f 43/43/70 136/136/9 42/42/65
f 136/136/9 40/40/69 41/41/65
f 5/5/65 138/138/11 44/44/65
f 46/46/71 138/138/11 45/45/65
f 138/138/11 43/43/70 44/44/65
f 6/6/65 140/140/13 47/47/65
f 49/49/72 140/140/13 48/48/65
f 140/140/13 46/46/71 47/47/65
f 7/7/65 142/142/15 50/50/65
f 52/52/73 142/142/15 51/51/65
f 142/142/15 49/49/72 50/50/65
f 8/8/65 144/144/17 53/53/65
f 55/55/74 144/144/17 54/54/65
f 144/144/17 52/52/73 53/53/65
f 9/9/65 146/146/19 56/56/65
f 58/58/75 146/146/19 57/57/65
f 146/146/19 55/55/74 56/56/65
f 10/10/65 148/148/21 59/59/65
f 61/61/76 148/148/21 60/60/65
f 148/148/21 58/58/75 59/59/65
f 11/11/65 150/150/23 62/62/65
f 64/64/77 150/150/23 63/63/65
f 150/150/23 61/61/76 62/62/65
f 12/12/65 152/152/25 65/65/65
f 67/67/78 152/152/25 66/66/65
f 152/152/25 64/64/77 65/65/65
f 13/13/65 154/154/27 68/68/65
f 70/70/79 154/154/27 69/69/65
f 154/154/27 67/67/78 68/68/65
f 14/14/65 156/156/29 71/71/65
f 73/73/80 156/156/29 72/72/65
f 156/156/29 70/70/79 71/71/65
f 15/15/65 158/158/31 74/74/65
f 76/76/81 158/158/31 75/75/65
f 158/158/31 73/73/80 74/74/65
f 16/16/65 160/160/33 77/77/65
f 79/79/82 160/160/33 78/78/65
f 160/160/33 76/76/81 77/77/65
f 17/17/65 162/162/35 80/80/65
f 82/82/83 162/162/35 81/81/65
f 162/162/35 79/79/82 80/80/65
f 18/18/65 164/164/37 83/83/65
f 85/85/84 164/164/37 84/84/65
f 164/164/37 82/82/83 83/83/65
f 19/19/65 166/166/39 86/86/65
f 88/88/85 166/166/39 87/87/65
f 166/166/39 85/85/84 86/86/65
f 20/20/65 168/168/41 89/89/65
f 91/91/86 168/168/41 90/90/65
f 168/168/41 88/88/85 89/89/65
f 21/21/65 170/170/43 92/92/65
f 94/94/87 170/170/43 93/93/65
f 170/170/43 91/91/86 92/92/65
f 22/22/65 172/172/45 95/95/65
f 97/97/88 172/172/45 96/96/65
f 172/172/45 94/94/87 95/95/65
f 23/23/65 174/174/47 98/98/65
f 100/100/89 174/174/47 99/99/65
f 174/174/47 97/97/88 98/98/65
f 24/24/65 176/176/49 101/101/65
f 103/103/90 176/176/49 102/102/65
f 176/176/49 100/100/89 101/101/65
f 25/25/65 178/178/51 104/104/65
f 106/106/91 178/178/51 105/105/65
f 178/178/51 103/103/90 104/104/65
f 26/26/65 180/180/53 107/107/65
f 109/109/92 180/180/53 108/108/65
f 180/180/53 106/106/91 107/107/65
f 27/27/65 182/182/55 110/110/65
f 112/112/93 182/182/55 111/111/65
f 182/182/55 109/109/92 110/110/65
f 28/28/65 184/184/57 113/113/65
f 115/115/94 184/184/57 114/114/65
f 184/184/57 112/112/93 113/113/65
f 29/29/65 186/186/59 116/116/65
f 118/118/95 186/186/59 117/117/65
f 186/186/59 115/115/94 116/116/65
f 30/30/65 188/188/61 119/119/65
f 121/121/96 188/188/61 120/120/65
f 188/188/61 118/118/95 119/119/65
f 31/31/65 190/190/63 122/122/65
f 124/124/97 190/190/63 123/123/65
f 190/190/63 121/121/96 122/122/65
f 32/32/65 192/192/64 125/125/65
f 127/127/67 192/192/64 126/126/65
f 192/192/64 124/124/97 125/125/65
f 131/131/1 129/129/65 193/193/2
f 133/133/4 129/129/65 131/131/1
f 135/135/6 129/129/65 133/133/4
f 137/137/8 129/129/65 135/135/6
f 139/139/10 129/129/65 137/137/8
f 141/141/12 129/129/65 139/139/10
f 143/143/14 129/129/65 141/141/12
f 145/145/16 129/129/65 143/143/14
f 147/147/18 129/129/65 145/145/16
f 149/149/20 129/129/65 147/147/18
f 151/151/22 129/129/65 149/149/20
f 153/153/24 129/129/65 151/151/22
f 155/155/26 129/129/65 153/153/24
f 157/157/28 129/129/65 155/155/26
f 159/159/30 129/129/65 157/157/28
f 161/161/32 129/129/65 159/159/30
f 163/163/34 129/129/65 161/161/32
f 165/165/36 129/129/65 163/163/34
f 167/167/38 129/129/65 165/165/36
f 169/169/40 129/129/65 167/167/38
f 171/171/42 129/129/65 169/169/40
f 173/173/44 129/129/65 171/171/42
f 175/175/46 129/129/65 173/173/44
f 177/177/48 129/129/65 175/175/46
f 179/179/50 129/129/65 177/177/48
f 181/181/52 129/129/65 179/179/50
f 183/183/54 129/129/65 181/181/52
f 185/185/56 129/129/65 183/183/54
f 187/187/58 129/129/65 185/185/56
f 189/189/60 129/129/65 187/187/58
f 191/191/62 129/129/65 189/189/60
f 193/193/2 129/129/65 191/191/62
f 1/1/65 33/33/65 130/130/3
f 34/34/66 131/131/1 130/130/3
f 130/130/3 193/193/2 127/127/67
f 2/2/65 36/36/65 132/132/5
f 37/37/68 133/133/4 132/132/5
f 132/132/5 131/131/1 34/34/66
f 3/3/65 39/39/65 134/134/7
f 40/40/69 135/135/6 134/134/7
f 134/134/7 133/133/4 37/37/68
f 4/4/65 42/42/65 136/136/9
f 43/43/70 137/137/8 136/136/9
f 136/136/9 135/135/6 40/40/69
f 5/5/65 45/45/65 138/138/11
f 46/46/71 139/139/10 138/138/11
f 138/138/11 137/137/8 43/43/70
f 6/6/65 48/48/65 140/140/13
f 49/49/72 141/141/12 140/140/13
f 140/140/13 139/139/10 46/46/71
f 7/7/65 51/51/65 142/142/15
f 52/52/73 143/143/14 142/142/15
f 142/142/15 141/141/12 49/49/72
f 8/8/65 54/54/65 144/144/17
f 55/55/74 145/145/16 144/144/17
f 144/144/17 143/143/14 52/52/73
f 9/9/65 57/57/65 146/146/19
f 58/58/75 147/147/18 146/146/19
f 146/146/19 145/145/16 55/55/74
f 10/10/65 60/60/65 148/148/21
f 61/61/76 149/149/20 148/148/21
f 148/148/21 147/147/18 58/58/75
f 11/11/65 63/63/65 150/150/23
f 64/64/77 151/151/22 150/150/23
f 150/150/23 149/149/20 61/61/76
f 12/12/65 66/66/65 152/152/25
f 67/67/78 153/153/24 152/152/25
f 152/152/25 151/151/22 64/64/77
f 13/13/65 69/69/65 154/154/27
f 70/70/79 155/155/26 154/154/27
f 154/154/27 153/153/24 67/67/78
f 14/14/65 72/72/65 156/156/29
f 73/73/80 157/157/28 156/156/29
f 156/156/29 155/155/26 70/70/79
f 15/15/65 75/75/65 158/158/31
f 76/76/81 159/159/30 158/158/31
f 158/158/31 157/157/28 73/73/80
f 16/16/65 78/78/65 160/160/33
f 79/79/82 161/161/32 160/160/33
f 160/160/33 159/159/30 76/76/81
f 17/17/65 81/81/65 162/162/35
f 82/82/83 163/163/34 162/162/35
f 162/162/35 161/161/32 79/79/82
f 18/18/65 84/84/65 164/164/37
f 85/85/84 165/165/36 164/164/37
f 164/164/37 163/163/34 82/82/83
f 19/19/65 87/87/65 166/166/39
f 88/88/85 167/167/38 166/166/39
f 166/166/39 165/165/36 85/85/84
f 20/20/65 90/90/65 168/168/41
f 91/91/86 169/169/40 168/168/41
f 168/168/41 167/167/38 88/88/85
f 21/21/65 93/93/65 170/170/43
f 94/94/87 171/171/42 170/170/43
f 170/170/43 169/169/40 91/91/86
f 22/22/65 96/96/65 172/172/45
f 97/97/88 173/173/44 172/172/45
f 172/172/45 171/171/42 94/94/87
f 23/23/65 99/99/65 174/174/47
f 100/100/89 175/175/46 174/174/47
f 174/174/47 173/173/44 97/97/88
f 24/24/65 102/102/65 176/176/49
f 103/103/90 177/177/48 176/176/49
f 176/176/49 175/175/46 100/100/89
f 25/25/65 105/105/65 178/178/51
f 106/106/91 179/179/50 178/178/51
f 178/178/51 177/177/48 103/103/90
f 26/26/65 108/108/65 180/180/53
f 109/109/92 181/181/52 180/180/53
f 180/180/53 179/179/50 106/106/91
f 27/27/65 111/111/65 182/182/55
f 112/112/93 183/183/54 182/182/55
f 182/182/55 181/181/52 109/109/92
f 28/28/65 114/114/65 184/184/57
f 115/115/94 185/185/56 184/184/57
f 184/184/57 183/183/54 112/112/93
f 29/29/65 117/117/65 186/186/59
f 118/118/95 187/187/58 186/186/59
f 186/186/59 185/185/56 115/115/94
f 30/30/65 120/120/65 188/188/61
f 121/121/96 189/189/60 188/188/61
f 188/188/61 187/187/58 118/118/95
f 31/31/65 123/123/65 190/190/63
f 124/124/97 191/191/62 190/190/63
f 190/190/63 189/189/60 121/121/96
f 32/32/65 126/126/65 192/192/64
f 127/127/67 193/193/2 192/192/64
f 192/192/64 191/191/62 124/124/97
